<svg width="42" height="30" viewBox="0 0 42 30" fill="none" xmlns="http://www.w3.org/2000/svg">
<path d="M14.3381 5.22961C15.2631 5.22961 16.1176 5.29962 16.9016 5.50965C17.6857 5.64966 18.3288 5.93845 18.9014 6.28849C19.474 6.63853 19.8969 7.13734 20.1876 7.77616C20.4695 8.41499 20.6192 9.19383 20.6192 10.0427C20.6192 11.0315 20.4078 11.8804 19.9057 12.5192C19.474 13.158 18.7692 13.7269 17.9059 14.1469C19.1216 14.4969 20.0466 15.1358 20.6104 15.9846C21.1742 16.8335 21.5354 17.8923 21.5354 19.1C21.5354 20.0888 21.324 20.9377 20.9628 21.6465C20.6104 22.3554 20.0378 22.9942 19.3947 23.4142C18.7516 23.843 17.9676 24.1931 17.1131 24.4031C16.2585 24.6131 15.404 24.7531 14.5495 24.7531L5 24.7706V5.22961H14.3381ZM13.7655 13.158C14.5495 13.158 15.1926 12.948 15.6859 12.5892C16.1793 12.2304 16.3995 11.6004 16.3995 10.8215C16.3995 10.3927 16.329 9.97267 16.1881 9.69263C16.0471 9.4126 15.8357 9.19383 15.545 8.9838C15.2631 8.84379 14.9724 8.70377 14.62 8.63376C14.2676 8.56375 13.9064 8.56375 13.4835 8.56375H9.35189V13.1668C9.35189 13.158 13.7655 13.158 13.7655 13.158ZM13.9769 21.5153C14.4085 21.5153 14.8314 21.4453 15.1926 21.3752C15.545 21.3052 15.9062 21.1652 16.1881 20.9464C16.47 20.7277 16.6902 20.5176 16.9016 20.1676C17.0426 19.8176 17.1835 19.3888 17.1835 18.89C17.1835 17.9011 16.9016 17.1923 16.329 16.6935C15.7564 16.2647 14.9724 16.0546 14.0474 16.0546H9.35189V21.5065H13.9769V21.5153Z" fill="white"/>
<path d="M27.319 20.9552C27.8916 21.524 28.7461 21.8041 29.8825 21.8041C30.6666 21.8041 31.3801 21.594 31.9528 21.2352C32.5254 20.8064 32.8778 20.3864 33.0187 19.9576H36.5073C35.9346 21.6553 35.0801 22.8629 33.9437 23.6418C32.8073 24.3506 31.4506 24.7706 29.812 24.7706C28.6756 24.7706 27.6713 24.5606 26.7463 24.2018C25.8213 23.8518 25.1078 23.353 24.4647 22.6441C23.8216 22.0053 23.3283 21.2265 23.0375 20.3076C22.6852 19.3888 22.5354 18.3999 22.5354 17.2623C22.5354 16.2034 22.6764 15.2058 23.0375 14.2869C23.3987 13.3681 23.8921 12.5892 24.5352 11.8804C25.1782 11.2416 25.9623 10.6728 26.8168 10.3227C27.7418 9.97267 28.6668 9.7539 29.812 9.7539C31.0278 9.7539 32.0937 9.96392 33.0187 10.4627C33.9437 10.9615 34.6573 11.5216 35.2299 12.3705C35.8025 13.1493 36.2254 14.0681 36.5161 15.057C36.657 16.0459 36.7275 17.0435 36.657 18.1724H26.3235C26.3235 19.3275 26.7463 20.3864 27.319 20.9552ZM31.8118 13.5168C31.3097 13.018 30.5256 12.738 29.6006 12.738C28.9575 12.738 28.4642 12.878 28.0325 13.088C27.6009 13.2981 27.319 13.5868 27.0371 13.8669C26.7551 14.1469 26.6054 14.5057 26.5349 14.8557C26.4644 15.2058 26.394 15.4946 26.394 15.7746H32.8073C32.6663 14.7245 32.3051 14.0156 31.8118 13.5168ZM25.5394 6.08722H33.5208V7.99494H25.5394V6.08722Z" fill="white"/>
</svg>
