<svg width="50" height="50" viewBox="0 0 50 50" fill="none" xmlns="http://www.w3.org/2000/svg">
<path d="M39.5833 22.9169H10.4167M39.5833 22.9169C41.8845 22.9169 43.75 24.7824 43.75 27.0836V39.5836C43.75 41.8848 41.8845 43.7502 39.5833 43.7502H10.4167C8.11548 43.7502 6.25 41.8848 6.25 39.5836V27.0836C6.25 24.7824 8.11548 22.9169 10.4167 22.9169M39.5833 22.9169V18.7502C39.5833 16.4491 37.7179 14.5836 35.4167 14.5836M10.4167 22.9169V18.7502C10.4167 16.4491 12.2821 14.5836 14.5833 14.5836M14.5833 14.5836V10.4169C14.5833 8.11572 16.4488 6.25024 18.75 6.25024H31.25C33.5512 6.25024 35.4167 8.11572 35.4167 10.4169V14.5836M14.5833 14.5836H35.4167" stroke="#A0A0A1" stroke-width="3" stroke-linecap="round" stroke-linejoin="round"/>
</svg>
