<svg width="42" height="42" viewBox="0 0 42 42" fill="none" xmlns="http://www.w3.org/2000/svg">
<path d="M18.9167 8.25455V36.0837C18.9167 38.1085 17.2752 39.75 15.2504 39.75C13.7009 39.75 12.3188 38.776 11.7977 37.3168L7.32599 24.506M33.5 23.0833C36.9518 23.0833 39.75 20.2851 39.75 16.8333C39.75 13.3816 36.9518 10.5833 33.5 10.5833M7.32599 24.506C4.34229 23.2377 2.25 20.2799 2.25 16.8333C2.25 12.231 5.98095 8.5 10.5833 8.5H14.4002C22.9432 8.5 30.2852 5.92897 33.5 2.25L33.5 31.4167C30.2852 27.7377 22.9432 25.1667 14.4002 25.1667L10.5833 25.1666C9.42746 25.1666 8.3266 24.9313 7.32599 24.506Z" stroke="#A0A0A1" stroke-width="3" stroke-linecap="round" stroke-linejoin="round"/>
</svg>
