<svg width="38" height="38" viewBox="0 0 38 38" fill="none" xmlns="http://www.w3.org/2000/svg">
<path d="M2.33325 4.41671C2.33325 3.26611 3.26599 2.33337 4.41658 2.33337H33.5832C34.7338 2.33337 35.6666 3.26611 35.6666 4.41671V8.58337C35.6666 9.73397 34.7338 10.6667 33.5832 10.6667H4.41658C3.26599 10.6667 2.33325 9.73397 2.33325 8.58337V4.41671Z" stroke="#A0A0A1" stroke-width="3" stroke-linecap="round" stroke-linejoin="round"/>
<path d="M2.33325 21.0834C2.33325 19.9328 3.26599 19 4.41658 19H16.9166C18.0672 19 18.9999 19.9328 18.9999 21.0834V33.5834C18.9999 34.734 18.0672 35.6667 16.9166 35.6667H4.41658C3.26599 35.6667 2.33325 34.734 2.33325 33.5834V21.0834Z" stroke="#A0A0A1" stroke-width="3" stroke-linecap="round" stroke-linejoin="round"/>
<path d="M27.3332 21.0834C27.3332 19.9328 28.266 19 29.4166 19H33.5832C34.7338 19 35.6666 19.9328 35.6666 21.0834V33.5834C35.6666 34.734 34.7338 35.6667 33.5832 35.6667H29.4166C28.266 35.6667 27.3332 34.734 27.3332 33.5834V21.0834Z" stroke="#A0A0A1" stroke-width="3" stroke-linecap="round" stroke-linejoin="round"/>
</svg>
