<svg width="34" height="34" viewBox="0 0 34 34" fill="none" xmlns="http://www.w3.org/2000/svg">
<path d="M17.2197 16.9998C17.2197 15.939 17.6412 14.9215 18.3913 14.1714C19.1415 13.4212 20.1589 12.9998 21.2198 12.9998C22.2806 12.9998 23.2981 13.4212 24.0482 14.1714C24.7984 14.9215 25.2198 15.939 25.2198 16.9998C25.2198 18.0607 24.7984 19.0781 24.0482 19.8283C23.2981 20.5784 22.2806 20.9999 21.2198 20.9999C20.1589 20.9999 19.1415 20.5784 18.3913 19.8283C17.6412 19.0781 17.2197 18.0607 17.2197 16.9998V16.9998Z" stroke="white" stroke-width="1.12001"/>
<path d="M9.21973 25.0002C9.21973 23.9393 9.64116 22.9219 10.3913 22.1717C11.1415 21.4216 12.1589 21.0001 13.2198 21.0001H17.2198V25.0002C17.2198 26.061 16.7984 27.0785 16.0482 27.8286C15.2981 28.5788 14.2806 29.0002 13.2198 29.0002C12.1589 29.0002 11.1415 28.5788 10.3913 27.8286C9.64116 27.0785 9.21973 26.061 9.21973 25.0002Z" stroke="white" stroke-width="1.12001"/>
<path d="M17.2197 5V13.0001H21.2198C22.2806 13.0001 23.2981 12.5787 24.0482 11.8285C24.7984 11.0783 25.2198 10.0609 25.2198 9.00004C25.2198 7.93916 24.7984 6.92174 24.0482 6.17158C23.2981 5.42143 22.2806 5 21.2198 5H17.2197Z" stroke="white" stroke-width="1.12001"/>
<path d="M9.21973 9.00004C9.21973 10.0609 9.64116 11.0783 10.3913 11.8285C11.1415 12.5787 12.1589 13.0001 13.2198 13.0001H17.2198V5H13.2198C12.1589 5 11.1415 5.42143 10.3913 6.17158C9.64116 6.92174 9.21973 7.93916 9.21973 9.00004Z" stroke="white" stroke-width="1.12001"/>
<path d="M9.21973 16.9998C9.21973 18.0607 9.64116 19.0781 10.3913 19.8283C11.1415 20.5784 12.1589 20.9999 13.2198 20.9999H17.2198V12.9998H13.2198C12.1589 12.9998 11.1415 13.4212 10.3913 14.1714C9.64116 14.9215 9.21973 15.939 9.21973 16.9998Z" stroke="white" stroke-width="1.12001"/>
</svg>
