<svg width="50" height="50" viewBox="0 0 50 50" fill="none" xmlns="http://www.w3.org/2000/svg">
<path d="M39.5833 22.9167H10.4167M39.5833 22.9167C41.8845 22.9167 43.75 24.7821 43.75 27.0833V39.5833C43.75 41.8845 41.8845 43.75 39.5833 43.75H10.4167C8.11548 43.75 6.25 41.8845 6.25 39.5833V27.0833C6.25 24.7821 8.11548 22.9167 10.4167 22.9167M39.5833 22.9167V18.75C39.5833 16.4488 37.7179 14.5833 35.4167 14.5833M10.4167 22.9167V18.75C10.4167 16.4488 12.2821 14.5833 14.5833 14.5833M14.5833 14.5833V10.4167C14.5833 8.11548 16.4488 6.25 18.75 6.25H31.25C33.5512 6.25 35.4167 8.11548 35.4167 10.4167V14.5833M14.5833 14.5833H35.4167" stroke="#A0A0A1" stroke-width="3" stroke-linecap="round" stroke-linejoin="round"/>
</svg>
