<svg width="36" height="34" viewBox="0 0 36 34" fill="none" xmlns="http://www.w3.org/2000/svg">
<path d="M28.7554 7.16118V26.839C28.7554 27.2889 28.5767 27.7204 28.2586 28.0386C27.9404 28.3567 27.5089 28.5354 27.059 28.5354H7.38118C6.93128 28.5354 6.4998 28.3567 6.18167 28.0386C5.86354 27.7204 5.68481 27.2889 5.68481 26.839V7.16118C5.68481 6.71128 5.86354 6.2798 6.18167 5.96167C6.4998 5.64354 6.93128 5.46481 7.38118 5.46481H27.059C27.5089 5.46481 27.9404 5.64354 28.2586 5.96167C28.5767 6.2798 28.7554 6.71128 28.7554 7.16118ZM12.4703 14.2859H9.07755V25.1427H12.4703V14.2859ZM12.7756 10.5539C12.7774 10.2973 12.7286 10.0428 12.6321 9.80503C12.5355 9.56725 12.3931 9.35082 12.2129 9.16809C12.0327 8.98536 11.8182 8.83992 11.5818 8.74007C11.3454 8.64021 11.0916 8.58791 10.835 8.58613H10.7739C10.252 8.58613 9.75151 8.79345 9.38248 9.16248C9.01345 9.53151 8.80613 10.032 8.80613 10.5539C8.80613 11.0758 9.01345 11.5763 9.38248 11.9454C9.75151 12.3144 10.252 12.5217 10.7739 12.5217C11.0306 12.528 11.2859 12.4837 11.5255 12.3913C11.765 12.2989 11.9839 12.1602 12.1698 11.9831C12.3557 11.806 12.5049 11.5941 12.6088 11.3593C12.7128 11.1246 12.7695 10.8716 12.7756 10.615V10.5539ZM25.3627 18.5472C25.3627 15.2834 23.2863 14.0145 21.2235 14.0145C20.5481 13.9807 19.8757 14.1245 19.2732 14.4317C18.6708 14.7389 18.1594 15.1987 17.7901 15.7652H17.6951V14.2859H14.5059V25.1427H17.8987V19.3682C17.8496 18.7768 18.0359 18.19 18.4171 17.7351C18.7982 17.2803 19.3434 16.9942 19.9343 16.939H20.0632C21.1421 16.939 21.9428 17.6176 21.9428 19.3275V25.1427H25.3355L25.3627 18.5472Z" fill="white"/>
</svg>
