<svg width="50" height="50" viewBox="0 0 50 50" fill="none" xmlns="http://www.w3.org/2000/svg">
<path d="M22.9167 12.2548V40.0839C22.9167 42.1088 21.2752 43.7502 19.2504 43.7502C17.7009 43.7502 16.3188 42.7762 15.7977 41.3171L11.326 28.5062M37.5 27.0836C40.9518 27.0836 43.75 24.2854 43.75 20.8336C43.75 17.3818 40.9518 14.5836 37.5 14.5836M11.326 28.5062C8.34229 27.2379 6.25 24.2801 6.25 20.8336C6.25 16.2312 9.98095 12.5002 14.5833 12.5002H18.4002C26.9432 12.5002 34.2852 9.92921 37.5 6.25024L37.5 35.4169C34.2852 31.7379 26.9432 29.1669 18.4002 29.1669L14.5833 29.1669C13.4275 29.1669 12.3266 28.9316 11.326 28.5062Z" stroke="#A0A0A1" stroke-width="3" stroke-linecap="round" stroke-linejoin="round"/>
</svg>
