<svg width="50" height="50" viewBox="0 0 50 50" fill="none" xmlns="http://www.w3.org/2000/svg">
<path d="M8.33325 10.4169C8.33325 9.2663 9.26599 8.33356 10.4166 8.33356H39.5832C40.7338 8.33356 41.6666 9.2663 41.6666 10.4169V14.5836C41.6666 15.7341 40.7338 16.6669 39.5832 16.6669H10.4166C9.26599 16.6669 8.33325 15.7341 8.33325 14.5836V10.4169Z" stroke="#A0A0A1" stroke-width="3" stroke-linecap="round" stroke-linejoin="round"/>
<path d="M8.33325 27.0836C8.33325 25.933 9.26599 25.0002 10.4166 25.0002H22.9166C24.0672 25.0002 24.9999 25.933 24.9999 27.0836V39.5836C24.9999 40.7341 24.0672 41.6669 22.9166 41.6669H10.4166C9.26599 41.6669 8.33325 40.7341 8.33325 39.5836V27.0836Z" stroke="#A0A0A1" stroke-width="3" stroke-linecap="round" stroke-linejoin="round"/>
<path d="M33.3332 27.0836C33.3332 25.933 34.266 25.0002 35.4166 25.0002H39.5832C40.7338 25.0002 41.6666 25.933 41.6666 27.0836V39.5836C41.6666 40.7341 40.7338 41.6669 39.5832 41.6669H35.4166C34.266 41.6669 33.3332 40.7341 33.3332 39.5836V27.0836Z" stroke="#A0A0A1" stroke-width="3" stroke-linecap="round" stroke-linejoin="round"/>
</svg>
